name analog
datacolumns 19
datarows 23
range 0.0 0.011
endheader
time	ground_force_vx	ground_force_vy	ground_force_vz	ground_force_px	ground_force_py	ground_force_pz	l_ground_force_vx	l_ground_force_vy	l_ground_force_vz	l_ground_force_px	l_ground_force_py	l_ground_force_pz	ground_torque_x	ground_torque_y	ground_torque_z	l_ground_torque_x	l_ground_torque_y	l_ground_torque_z
0.0	-0.0	-0.0	-0.0	0.2976184487342834	101.5763168334961	-658.4242553710938	4.790382385253906	-8.264602661132812	-126.9939956665039	-0.0	-0.0	-0.0	-0.0	-0.0	-0.0	32721.48828125	-15671.6298828125	1276.8614501953125
0.0005	-0.0	-0.0	-0.0	0.8326969146728516	99.98063659667967	-650.3441162109375	4.839437007904053	-9.906540870666504	-136.81732177734375	-0.0	-0.0	-0.0	-0.0	-0.0	-0.0	35343.046875	-16937.427734375	1337.290771484375
0.001	-0.0	-0.0	-0.0	0.8763980269432068	98.56865692138672	-640.91845703125	4.530563354492188	-11.77830696105957	-146.91796875	-0.0	-0.0	-0.0	-0.0	-0.0	-0.0	37699.46484375	-18138.208984375	1361.590576171875
0.0015	-0.0	-0.0	-0.0	1.0004267692565918	97.00890350341795	-632.992431640625	4.1363606452941895	-13.376089096069336	-155.84130859375	-0.0	-0.0	-0.0	-0.0	-0.0	-0.0	40202.23828125	-19241.060546875	1474.634765625
0.002	-0.0	-0.0	-0.0	1.2105741500854492	95.27368927001952	-623.5904541015625	3.739830255508423	-14.673498153686523	-164.5735626220703	-0.0	-0.0	-0.0	-0.0	-0.0	-0.0	42183.9453125	-20389.9921875	1494.9351806640625
0.0025	-0.0	-0.0	-0.0	0.970836579799652	93.04901123046876	-613.8858642578125	4.150192737579346	-15.857358932495115	-172.5489959716797	-0.0	-0.0	-0.0	-0.0	-0.0	-0.0	44259.8359375	-21425.701171875	1755.52734375
0.003	-0.0	-0.0	-0.0	1.3693914413452148	91.43458557128906	-603.9291381835938	4.504971981048584	-17.5087890625	-180.88397216796875	-0.0	-0.0	-0.0	-0.0	-0.0	-0.0	46084.6484375	-22304.796875	1897.24462890625
0.0035	-0.0	-0.0	-0.0	1.807564616203308	89.31055450439453	-593.3839721679688	4.518512725830078	-18.892133712768555	-187.81686401367188	-0.0	-0.0	-0.0	-0.0	-0.0	-0.0	47917.59375	-23286.828125	2115.206298828125
0.004	-0.0	-0.0	-0.0	1.951104760169983	87.72371673583984	-584.8516235351562	4.574214935302734	-20.040903091430664	-195.09950256347656	-0.0	-0.0	-0.0	-0.0	-0.0	-0.0	49365.0859375	-24422.71875	2262.859375
0.0045000000000000005	-0.0	-0.0	-0.0	1.7980366945266724	85.71260070800781	-576.0057373046875	4.48475980758667	-21.287616729736328	-200.08544921875	-0.0	-0.0	-0.0	-0.0	-0.0	-0.0	51090.63671875	-24905.2734375	2386.662109375
0.005	-0.0	-0.0	-0.0	2.050489664077759	83.99441528320312	-567.521728515625	4.400914192199707	-22.257020950317383	-206.7192230224609	-0.0	-0.0	-0.0	-0.0	-0.0	-0.0	52570.80859375	-25493.580078125	2499.360595703125
0.0055	-0.0	-0.0	-0.0	1.798875331878662	82.14240264892578	-557.3511352539062	4.435539245605469	-23.1971378326416	-211.40353393554688	-0.0	-0.0	-0.0	-0.0	-0.0	-0.0	53909.1875	-26285.744140625	2589.838623046875
0.006	-0.0	-0.0	-0.0	1.9339911937713623	80.9214096069336	-549.074951171875	4.001237392425537	-23.935176849365234	-216.74603271484372	-0.0	-0.0	-0.0	-0.0	-0.0	-0.0	55501.96875	-26922.599609375	2613.753173828125
0.006500000000000001	-0.0	-0.0	-0.0	1.8069922924041748	79.38046264648438	-540.19677734375	3.957691192626953	-24.55101585388184	-221.5080108642578	-0.0	-0.0	-0.0	-0.0	-0.0	-0.0	56589.99609375	-27456.90234375	2578.234130859375
0.007	-0.0	-0.0	-0.0	1.6706137657165527	77.63761901855469	-532.2818603515625	3.4449710845947266	-25.294492721557617	-227.29733276367188	-0.0	-0.0	-0.0	-0.0	-0.0	-0.0	57993.99609375	-28211.01953125	2468.0546875
0.0075	-0.0	-0.0	-0.0	1.5413548946380615	76.07279968261719	-524.7762451171875	3.0136308670043945	-25.72890853881836	-233.26161193847656	-0.0	-0.0	-0.0	-0.0	-0.0	-0.0	59292.94140625	-28703.376953125	2395.12841796875
0.008	-0.0	-0.0	-0.0	1.308656096458435	74.4334716796875	-518.3893432617188	2.2481727600097656	-26.17224502563477	-239.5595245361328	-0.0	-0.0	-0.0	-0.0	-0.0	-0.0	61032.09765625	-29282.939453125	2295.88720703125
0.0085	-0.0	-0.0	-0.0	1.3132753372192385	72.99280548095703	-509.2377014160156	2.717004776000977	-26.678890228271484	-245.4037628173828	-0.0	-0.0	-0.0	-0.0	-0.0	-0.0	62621.65625	-30248.619140625	2292.77392578125
0.009000000000000001	-0.0	-0.0	-0.0	1.8616234064102173	71.47811889648438	-501.0652465820313	2.4683547019958496	-27.320018768310547	-250.78677368164065	-0.0	-0.0	-0.0	-0.0	-0.0	-0.0	64111.54296875	-31118.982421875	2435.789306640625
0.0095	-0.0	-0.0	-0.0	1.848352313041687	70.00028228759766	-493.4285888671875	2.66424560546875	-27.359806060791016	-258.05322265625	-0.0	-0.0	-0.0	-0.0	-0.0	-0.0	65790.0390625	-32041.751953125	2526.899169921875
0.01	-0.0	-0.0	-0.0	1.556817889213562	69.0184097290039	-488.801025390625	2.572612762451172	-27.399702072143555	-264.26202392578125	-0.0	-0.0	-0.0	-0.0	-0.0	-0.0	67483.609375	-32896.16015625	2641.679931640625
0.0105	-0.0	-0.0	-0.0	1.7122142314910889	67.45741271972656	-480.051513671875	2.9597291946411133	-28.277034759521484	-269.69610595703125	-0.0	-0.0	-0.0	-0.0	-0.0	-0.0	69141.71875	-33951.3359375	2627.9677734375
0.011	-0.0	-0.0	-0.0	1.930434226989746	65.85104370117188	-473.934814453125	3.1389636993408203	-28.53180313110352	-277.17779541015625	-0.0	-0.0	-0.0	-0.0	-0.0	-0.0	70732.65625	-34697.68359375	2758.473876953125
